<svg xmlns="http://www.w3.org/2000/svg" xmlns:xlink="http://www.w3.org/1999/xlink" contentStyleType="text/css" data-diagram-type="STATE" height="1255px" preserveAspectRatio="none" style="width:917px;height:1255px;background:#FFFFFF;" version="1.1" viewBox="0 0 917 1255" width="917px" zoomAndPan="magnify"><?plantuml 1.2026.3beta6?><defs/><g><g class="title" data-source-line="1"><text fill="#000000" font-family="sans-serif" font-size="14" font-weight="700" lengthAdjust="spacing" textLength="323.0801" x="293.8963" y="22.9951">Puer Pub - &#1076;&#1080;&#1072;&#1075;&#1088;&#1072;&#1084;&#1084;&#1072; &#1089;&#1086;&#1089;&#1090;&#1086;&#1103;&#1085;&#1080;&#1081; &#1079;&#1072;&#1082;&#1072;&#1079;&#1072;</text></g><g class="entity" data-qualified-name="Created" id="ent0002"><rect fill="#F8F2E8" height="50" rx="12.5" ry="12.5" style="stroke:#6B4E2E;stroke-width:0.5;" width="73.1973" x="423.43" y="140.2969"/><line style="stroke:#6B4E2E;stroke-width:0.5;" x1="423.43" x2="496.6273" y1="166.5938" y2="166.5938"/><text fill="#000000" font-family="sans-serif" font-size="14" lengthAdjust="spacing" textLength="53.1973" x="433.43" y="158.292">&#1057;&#1086;&#1079;&#1076;&#1072;&#1085;</text></g><path d="M19.5,267.2969 L376.5629,267.2969 A12.5,12.5 0 0 1 389.0629,279.7969 L389.0629,293.5938 L7,293.5938 L7,279.7969 A12.5,12.5 0 0 1 19.5,267.2969" fill="#F8F2E8"/><rect fill="none" height="368.4906" rx="12.5" ry="12.5" style="stroke:#6B4E2E;stroke-width:0.5;" width="382.0629" x="7" y="267.2969"/><line style="stroke:#6B4E2E;stroke-width:0.5;" x1="7" x2="389.0629" y1="293.5938" y2="293.5938"/><text fill="#000000" font-family="sans-serif" font-size="14" lengthAdjust="spacing" textLength="126.6631" x="134.6999" y="285.292">&#1054;&#1078;&#1080;&#1076;&#1072;&#1077;&#1090; &#1086;&#1087;&#1083;&#1072;&#1090;&#1099;</text><g class="entity" data-qualified-name="AwaitingPayment.PaymentInitialized" id="ent0004"><rect fill="#F8F2E8" height="50" rx="12.5" ry="12.5" style="stroke:#6B4E2E;stroke-width:0.5;" width="133.0049" x="66.56" y="361.5938"/><line style="stroke:#6B4E2E;stroke-width:0.5;" x1="66.56" x2="199.5649" y1="387.8906" y2="387.8906"/><text fill="#000000" font-family="sans-serif" font-size="14" lengthAdjust="spacing" textLength="113.0049" x="76.56" y="379.5889">&#1055;&#1083;&#1072;&#1090;&#1077;&#1078; &#1089;&#1086;&#1079;&#1076;&#1072;&#1085;</text></g><g class="entity" data-qualified-name="AwaitingPayment.CustomerRedirected" id="ent0005"><rect fill="#F8F2E8" height="52.5938" rx="12.5" ry="12.5" style="stroke:#6B4E2E;stroke-width:0.5;" width="177.623" x="44.25" y="464.5938"/><line style="stroke:#6B4E2E;stroke-width:0.5;" x1="44.25" x2="221.873" y1="507.1875" y2="507.1875"/><text fill="#000000" font-family="sans-serif" font-size="14" lengthAdjust="spacing" textLength="157.623" x="54.25" y="482.5889">&#1055;&#1086;&#1082;&#1091;&#1087;&#1072;&#1090;&#1077;&#1083;&#1100; &#1087;&#1077;&#1088;&#1077;&#1096;&#1077;&#1083;</text><text fill="#000000" font-family="sans-serif" font-size="14" lengthAdjust="spacing" textLength="64.9209" x="54.25" y="498.8857">&#1082; &#1086;&#1087;&#1083;&#1072;&#1090;&#1077;</text></g><g class="entity" data-qualified-name="AwaitingPayment.PaymentChecking" id="ent0006"><rect fill="#F8F2E8" height="52.5938" rx="12.5" ry="12.5" style="stroke:#6B4E2E;stroke-width:0.5;" width="168.0596" x="49.03" y="570.1937"/><line style="stroke:#6B4E2E;stroke-width:0.5;" x1="49.03" x2="217.0896" y1="612.7875" y2="612.7875"/><text fill="#000000" font-family="sans-serif" font-size="14" lengthAdjust="spacing" textLength="148.0596" x="59.03" y="588.1889">&#1055;&#1088;&#1086;&#1074;&#1077;&#1088;&#1103;&#1077;&#1090;&#1089;&#1103; &#1089;&#1090;&#1072;&#1090;&#1091;&#1089;</text><text fill="#000000" font-family="sans-serif" font-size="14" lengthAdjust="spacing" textLength="64.6406" x="59.03" y="604.4857">&#1087;&#1083;&#1072;&#1090;&#1077;&#1078;&#1072;</text></g><g class="start_entity" data-qualified-name="AwaitingPayment..start.AwaitingPayment" data-source-line="15" id="ent0004"><ellipse cx="133.06" cy="314.5938" fill="#222222" rx="10" ry="10" style="stroke:#222222;stroke-width:1;"/></g><!--link *start*AwaitingPayment to PaymentInitialized--><g class="link" data-entity-1="ent0004" data-entity-2="ent0004" data-link-type="dependency" data-source-line="15" id="lnk5"><path d="M133.06,325.0338 C133.06,334.2938 133.06,342.7938 133.06,355.2838" fill="none" id="*start*AwaitingPayment-to-PaymentInitialized" style="stroke:#3E2B1A;stroke-width:1;"/><polygon fill="#3E2B1A" points="133.06,361.2838,137.06,352.2838,133.06,356.2838,129.06,352.2838,133.06,361.2838" style="stroke:#3E2B1A;stroke-width:1;"/></g><!--link PaymentInitialized to CustomerRedirected--><g class="link" data-entity-1="ent0004" data-entity-2="ent0005" data-link-type="dependency" data-source-line="20" id="lnk6"><path d="M133.06,411.8438 C133.06,427.6738 133.06,442.3138 133.06,458.3938" fill="none" id="PaymentInitialized-to-CustomerRedirected" style="stroke:#3E2B1A;stroke-width:1;"/><polygon fill="#3E2B1A" points="133.06,464.3938,137.06,455.3938,133.06,459.3938,129.06,455.3938,133.06,464.3938" style="stroke:#3E2B1A;stroke-width:1;"/><text fill="#000000" font-family="sans-serif" font-size="13" lengthAdjust="spacing" textLength="145.1138" x="134.06" y="442.6606">&#1087;&#1086;&#1083;&#1091;&#1095;&#1077;&#1085;&#1072; paymentUrl</text></g><!--link CustomerRedirected to PaymentChecking--><g class="link" data-entity-1="ent0005" data-entity-2="ent0006" data-link-type="dependency" data-source-line="21" id="lnk7"><path d="M46.57,517.4038 C39.76,522.3238 33.73,528.1938 29.06,535.1938 C18,551.7738 24.2803,561.7372 43.2503,571.0172" fill="none" id="CustomerRedirected-to-PaymentChecking" style="stroke:#3E2B1A;stroke-width:1;"/><polygon fill="#3E2B1A" points="48.64,573.6538,42.3132,566.1058,44.1486,571.4566,38.7978,573.292,48.64,573.6538" style="stroke:#3E2B1A;stroke-width:1;"/><text fill="#000000" font-family="sans-serif" font-size="13" lengthAdjust="spacing" textLength="185.834" x="30.06" y="548.2606">callback / &#1074;&#1086;&#1079;&#1074;&#1088;&#1072;&#1090; &#1089; &#1086;&#1087;&#1083;&#1072;&#1090;&#1099;</text></g><!--link PaymentChecking to CustomerRedirected--><g class="link" data-entity-1="ent0006" data-entity-2="ent0005" data-link-type="dependency" data-source-line="22" id="lnk8"><path d="M202.52,569.9038 C216.4,560.6737 224.46,549.0538 216.06,535.1938 C211.93,528.3838 211.0838,526.2675 204.7438,521.3575" fill="none" id="PaymentChecking-to-CustomerRedirected" style="stroke:#3E2B1A;stroke-width:1;"/><polygon fill="#3E2B1A" points="200,517.6838,204.6664,526.3569,203.9531,520.7452,209.5648,520.0319,200,517.6838" style="stroke:#3E2B1A;stroke-width:1;"/><text fill="#000000" font-family="sans-serif" font-size="13" lengthAdjust="spacing" textLength="144.0029" x="220.06" y="548.2606">&#1087;&#1083;&#1072;&#1090;&#1077;&#1078; &#1085;&#1077; &#1079;&#1072;&#1074;&#1077;&#1088;&#1096;&#1077;&#1085;</text></g><g class="entity" data-qualified-name="Paid" id="ent0007"><rect fill="#F8F2E8" height="50" rx="12.5" ry="12.5" style="stroke:#6B4E2E;stroke-width:0.5;" width="83.7383" x="156.16" y="727.7869"/><line style="stroke:#6B4E2E;stroke-width:0.5;" x1="156.16" x2="239.8983" y1="754.0838" y2="754.0838"/><text fill="#000000" font-family="sans-serif" font-size="14" lengthAdjust="spacing" textLength="63.7383" x="166.16" y="745.782">&#1054;&#1087;&#1083;&#1072;&#1095;&#1077;&#1085;</text></g><g class="entity" data-qualified-name="Assembling" id="ent0008"><rect fill="#F8F2E8" height="50" rx="12.5" ry="12.5" style="stroke:#6B4E2E;stroke-width:0.5;" width="106.4268" x="145.82" y="854.7869"/><line style="stroke:#6B4E2E;stroke-width:0.5;" x1="145.82" x2="252.2468" y1="881.0838" y2="881.0838"/><text fill="#000000" font-family="sans-serif" font-size="14" lengthAdjust="spacing" textLength="86.4268" x="155.82" y="872.782">&#1057;&#1086;&#1073;&#1080;&#1088;&#1072;&#1077;&#1090;&#1089;&#1103;</text></g><g class="entity" data-qualified-name="Shipping" id="ent0009"><rect fill="#F8F2E8" height="50" rx="12.5" ry="12.5" style="stroke:#6B4E2E;stroke-width:0.5;" width="168.873" x="121.59" y="981.7869"/><line style="stroke:#6B4E2E;stroke-width:0.5;" x1="121.59" x2="290.463" y1="1008.0838" y2="1008.0838"/><text fill="#000000" font-family="sans-serif" font-size="14" lengthAdjust="spacing" textLength="148.873" x="131.59" y="999.782">&#1055;&#1077;&#1088;&#1077;&#1076;&#1072;&#1085; &#1074; &#1076;&#1086;&#1089;&#1090;&#1072;&#1074;&#1082;&#1091;</text></g><g class="entity" data-qualified-name="Completed" id="ent0010"><rect fill="#F8F2E8" height="50" rx="12.5" ry="12.5" style="stroke:#6B4E2E;stroke-width:0.5;" width="93.8828" x="220.09" y="1108.7869"/><line style="stroke:#6B4E2E;stroke-width:0.5;" x1="220.09" x2="313.9728" y1="1135.0838" y2="1135.0838"/><text fill="#000000" font-family="sans-serif" font-size="14" lengthAdjust="spacing" textLength="73.8828" x="230.09" y="1126.782">&#1047;&#1072;&#1074;&#1077;&#1088;&#1096;&#1077;&#1085;</text></g><g class="entity" data-qualified-name="Cancelled" id="ent0011"><rect fill="#F8F2E8" height="50" rx="12.5" ry="12.5" style="stroke:#6B4E2E;stroke-width:0.5;" width="85.2695" x="382.4" y="727.7869"/><line style="stroke:#6B4E2E;stroke-width:0.5;" x1="382.4" x2="467.6695" y1="754.0838" y2="754.0838"/><text fill="#000000" font-family="sans-serif" font-size="14" lengthAdjust="spacing" textLength="65.2695" x="392.4" y="745.782">&#1054;&#1090;&#1084;&#1077;&#1085;&#1077;&#1085;</text></g><g class="start_entity" data-qualified-name=".start." data-source-line="10" id="ent0002"><ellipse cx="460.03" cy="53.2969" fill="#222222" rx="10" ry="10" style="stroke:#222222;stroke-width:1;"/></g><g class="end_entity" data-qualified-name=".end." data-source-line="40" id="ent0016"><ellipse cx="375.03" cy="1230.7869" fill="none" rx="11" ry="11" style="stroke:#222222;stroke-width:1;"/><ellipse cx="375.03" cy="1230.7869" fill="#222222" rx="6" ry="6" style="stroke:#222222;stroke-width:1;"/></g><g class="entity" data-qualified-name="GMN2" data-source-line="44" id="ent0003"><path d="M424.32,423.8469 L424.32,447.5369 L389.28,451.5369 L424.32,455.5369 L424.32,479.2453 A0,0 0 0 0 424.32,479.2453 L651.7394,479.2453 A0,0 0 0 0 651.7394,479.2453 L651.7394,433.8469 L641.7394,423.8469 L424.32,423.8469 A0,0 0 0 0 424.32,423.8469" fill="#FEFFDD" style="stroke:#181818;stroke-width:0.5;"/><path d="M641.7394,423.8469 L641.7394,433.8469 L651.7394,433.8469 L641.7394,423.8469" fill="#FEFFDD" style="stroke:#181818;stroke-width:0.5;"/><text fill="#000000" font-family="sans-serif" font-size="13" lengthAdjust="spacing" textLength="169.8823" x="430.32" y="440.9138">&#1050;&#1086;&#1084;&#1087;&#1086;&#1079;&#1080;&#1090;&#1085;&#1086;&#1077; &#1089;&#1086;&#1089;&#1090;&#1086;&#1103;&#1085;&#1080;&#1077;:</text><text fill="#000000" font-family="sans-serif" font-size="13" lengthAdjust="spacing" textLength="194.7778" x="430.32" y="456.0466">&#1074;&#1085;&#1091;&#1090;&#1088;&#1080; &#1085;&#1077;&#1075;&#1086; &#1079;&#1072;&#1082;&#1072;&#1079; &#1087;&#1088;&#1086;&#1093;&#1086;&#1076;&#1080;&#1090;</text><text fill="#000000" font-family="sans-serif" font-size="13" lengthAdjust="spacing" textLength="206.4194" x="430.32" y="471.1794">&#1085;&#1077;&#1089;&#1082;&#1086;&#1083;&#1100;&#1082;&#1086; &#1087;&#1086;&#1076;&#1101;&#1090;&#1072;&#1087;&#1086;&#1074; &#1086;&#1087;&#1083;&#1072;&#1090;&#1099;.</text></g><!--link *start* to Created--><g class="link" data-entity-1="ent0002" data-entity-2="ent0002" data-link-type="dependency" data-source-line="10" id="lnk3"><path d="M460.03,63.6769 C460.03,80.4069 460.03,109.8869 460.03,133.9269" fill="none" id="*start*-to-Created" style="stroke:#3E2B1A;stroke-width:1;"/><polygon fill="#3E2B1A" points="460.03,139.9269,464.03,130.9269,460.03,134.9269,456.03,130.9269,460.03,139.9269" style="stroke:#3E2B1A;stroke-width:1;"/><text fill="#000000" font-family="sans-serif" font-size="13" lengthAdjust="spacing" textLength="202.6616" x="461.03" y="106.3638">&#1087;&#1086;&#1082;&#1091;&#1087;&#1072;&#1090;&#1077;&#1083;&#1100; &#1086;&#1092;&#1086;&#1088;&#1084;&#1083;&#1103;&#1077;&#1090; &#1079;&#1072;&#1082;&#1072;&#1079;</text></g><!--link Created to AwaitingPayment--><g class="link" data-entity-1="ent0002" data-entity-2="ent0003" data-link-type="dependency" data-source-line="31" id="lnk9"><path d="M437.69,190.5269 C420.55,209.1269 399.2167,232.2753 371.2767,262.5853" fill="none" id="Created-to-AwaitingPayment" style="stroke:#3E2B1A;stroke-width:1;"/><polygon fill="#3E2B1A" points="367.21,266.9969,376.2511,263.0906,370.5989,263.3205,370.3689,257.6684,367.21,266.9969" style="stroke:#3E2B1A;stroke-width:1;"/><text fill="#000000" font-family="sans-serif" font-size="13" lengthAdjust="spacing" textLength="164.0107" x="411.03" y="233.3638">&#1089;&#1086;&#1079;&#1076;&#1072;&#1085; &#1087;&#1083;&#1072;&#1090;&#1077;&#1078; &#1074; Tinkoff</text></g><!--link AwaitingPayment to Paid--><g class="link" data-entity-1="ent0003" data-entity-2="ent0007" data-link-type="dependency" data-source-line="32" id="lnk10"><path d="M198.03,636.0869 C198.03,672.3869 198.03,699.8669 198.03,721.3769" fill="none" id="AwaitingPayment-to-Paid" style="stroke:#3E2B1A;stroke-width:1;"/><polygon fill="#3E2B1A" points="198.03,727.3769,202.03,718.3769,198.03,722.3769,194.03,718.3769,198.03,727.3769" style="stroke:#3E2B1A;stroke-width:1;"/><text fill="#000000" font-family="sans-serif" font-size="13" lengthAdjust="spacing" textLength="154.4893" x="199.03" y="686.3538">&#1086;&#1087;&#1083;&#1072;&#1090;&#1072; &#1087;&#1086;&#1076;&#1090;&#1074;&#1077;&#1088;&#1078;&#1076;&#1077;&#1085;&#1072;</text></g><!--link AwaitingPayment to Cancelled--><g class="link" data-entity-1="ent0003" data-entity-2="ent0011" data-link-type="dependency" data-source-line="33" id="lnk11"><path d="M339.65,636.1169 C347.24,646.1369 354.74,656.0769 362.03,665.7869 C377.59,686.5069 391.4436,705.4325 404.0036,722.7225" fill="none" id="AwaitingPayment-to-Cancelled" style="stroke:#3E2B1A;stroke-width:1;"/><polygon fill="#3E2B1A" points="407.53,727.5769,405.4767,717.9444,404.5914,723.5316,399.0042,722.6462,407.53,727.5769" style="stroke:#3E2B1A;stroke-width:1;"/><text fill="#000000" font-family="sans-serif" font-size="13" lengthAdjust="spacing" textLength="120.8276" x="427.7468" y="678.8538">&#1087;&#1083;&#1072;&#1090;&#1077;&#1078; &#1086;&#1090;&#1082;&#1083;&#1086;&#1085;&#1077;&#1085;</text><text fill="#000000" font-family="sans-serif" font-size="13" lengthAdjust="spacing" textLength="204.2612" x="386.03" y="693.9866">&#1080;&#1083;&#1080; &#1080;&#1089;&#1090;&#1077;&#1082;&#1083;&#1086; &#1074;&#1088;&#1077;&#1084;&#1103; &#1086;&#1078;&#1080;&#1076;&#1072;&#1085;&#1080;&#1103;</text></g><!--link Created to Cancelled--><g class="link" data-entity-1="ent0002" data-entity-2="ent0011" data-link-type="dependency" data-source-line="34" id="lnk12"><path d="M497.1,171.6569 C546.76,181.0969 632.8,205.8569 669.03,267.2969 C752.23,408.3669 736.25,486.4469 669.03,635.7869 C634.47,712.5569 534.3577,737.8443 474.0577,746.6043" fill="none" id="Created-to-Cancelled" style="stroke:#3E2B1A;stroke-width:1;"/><polygon fill="#3E2B1A" points="468.12,747.4669,477.6016,750.1314,473.0681,746.7481,476.4514,742.2145,468.12,747.4669" style="stroke:#3E2B1A;stroke-width:1;"/><text fill="#000000" font-family="sans-serif" font-size="13" lengthAdjust="spacing" textLength="175.8428" x="726.03" y="456.1038">&#1079;&#1072;&#1082;&#1072;&#1079; &#1086;&#1090;&#1084;&#1077;&#1085;&#1077;&#1085; &#1076;&#1086; &#1086;&#1087;&#1083;&#1072;&#1090;&#1099;</text></g><!--link Paid to Assembling--><g class="link" data-entity-1="ent0007" data-entity-2="ent0008" data-link-type="dependency" data-source-line="36" id="lnk13"><path d="M196.05,778.0969 C195.17,791.8069 194.46,809.2569 195.03,824.7869 C195.39,834.4669 195.638,839.1155 196.368,848.3655" fill="none" id="Paid-to-Assembling" style="stroke:#3E2B1A;stroke-width:1;"/><polygon fill="#3E2B1A" points="196.84,854.3469,200.1195,845.0601,196.4466,849.3624,192.1443,845.6895,196.84,854.3469" style="stroke:#3E2B1A;stroke-width:1;"/><text fill="#000000" font-family="sans-serif" font-size="13" lengthAdjust="spacing" textLength="202.5791" x="196.03" y="820.8538">&#1072;&#1076;&#1084;&#1080;&#1085;&#1080;&#1089;&#1090;&#1088;&#1072;&#1090;&#1086;&#1088; &#1087;&#1088;&#1080;&#1085;&#1103;&#1083; &#1079;&#1072;&#1082;&#1072;&#1079;</text></g><!--link Assembling to Shipping--><g class="link" data-entity-1="ent0008" data-entity-2="ent0009" data-link-type="dependency" data-source-line="37" id="lnk14"><path d="M200.4,905.1869 C201.63,927.2069 203.1051,953.4562 204.3351,975.4562" fill="none" id="Assembling-to-Shipping" style="stroke:#3E2B1A;stroke-width:1;"/><polygon fill="#3E2B1A" points="204.67,981.4469,208.1614,972.2376,204.3909,976.4547,200.1738,972.6842,204.67,981.4469" style="stroke:#3E2B1A;stroke-width:1;"/><text fill="#000000" font-family="sans-serif" font-size="13" lengthAdjust="spacing" textLength="89.5781" x="204.03" y="947.8538">&#1079;&#1072;&#1082;&#1072;&#1079; &#1089;&#1086;&#1073;&#1088;&#1072;&#1085;</text></g><!--link Shipping to Completed--><g class="link" data-entity-1="ent0009" data-entity-2="ent0010" data-link-type="dependency" data-source-line="38" id="lnk15"><path d="M200.67,1032.1869 C198.75,1046.3969 198.44,1064.3169 205.03,1078.7869 C210.24,1090.2169 214.6318,1096.2753 224.1418,1104.4153" fill="none" id="Shipping-to-Completed" style="stroke:#3E2B1A;stroke-width:1;"/><polygon fill="#3E2B1A" points="228.7,1108.3169,224.4637,1099.4257,224.9015,1105.0656,219.2616,1105.5033,228.7,1108.3169" style="stroke:#3E2B1A;stroke-width:1;"/><text fill="#000000" font-family="sans-serif" font-size="13" lengthAdjust="spacing" textLength="192.6577" x="206.03" y="1074.8538">&#1079;&#1072;&#1082;&#1072;&#1079; &#1087;&#1086;&#1083;&#1091;&#1095;&#1077;&#1085; &#1087;&#1086;&#1082;&#1091;&#1087;&#1072;&#1090;&#1077;&#1083;&#1077;&#1084;</text></g><!--link Cancelled to *end*--><g class="link" data-entity-1="ent0011" data-entity-2="ent0016" data-link-type="dependency" data-source-line="40" id="lnk17"><path d="M425.03,778.2169 C425.03,803.4169 425.03,843.8469 425.03,878.7869 C425.03,878.7869 425.03,878.7869 425.03,1134.7869 C425.03,1170.9469 400.3605,1202.4213 386.4505,1217.6913" fill="none" id="Cancelled-to-*end*" style="stroke:#3E2B1A;stroke-width:1;"/><polygon fill="#3E2B1A" points="382.41,1222.1269,391.4278,1218.1672,385.7771,1218.4306,385.5137,1212.7799,382.41,1222.1269" style="stroke:#3E2B1A;stroke-width:1;"/></g><!--link Completed to *end*--><g class="link" data-entity-1="ent0010" data-entity-2="ent0016" data-link-type="dependency" data-source-line="41" id="lnk18"><path d="M294.84,1159.2469 C318.84,1180.3669 347.4451,1205.5238 362.4951,1218.7638" fill="none" id="Completed-to-*end*" style="stroke:#3E2B1A;stroke-width:1;"/><polygon fill="#3E2B1A" points="367,1222.7269,362.8847,1213.779,363.2459,1219.4243,357.6006,1219.7855,367,1222.7269" style="stroke:#3E2B1A;stroke-width:1;"/></g><?plantuml-src XLNBRjDG4DtxAqPbXrGG1Q6g2wIsIYLs5OyLi73YcyIgOqUsgmeGKjE2GAAeIoGM8FuWJPisvE7-mlKVSMPk_4eYKEL7hcVEFJFdp6tinfwY_KCLubQdTT9NUgJx-Z8zndsAlpwbFPsalVG4ztCzm-S_f6_mTOmBJykA3bo_QuTsXwAsxGH7hj-Yfkr5glmbjcD5xosY7Rjnq0g3Gz_P3RmWf3jxctiRjKt-4eIE2kUhZtSUrJPgMDqEm-1ellYmjh7pODlwO5clxhwXzVKdj1ig03kqHVfM9tgSdkBP1zcXdgHd1CuVSHsZa0dO3zEJ4dSm5rPh-ZTIRr1wNy_Mo8uor2BWfxv6uHmW40ascV0swLU9tpwotHXbxzjlEygFfSwCuNpjgOy8stFV0POem_rbOC3sMlfSOV6Vp1NLteBUCQullF3Qr-CILJqqfHr6ST1HuJFbkA5gn5LGP2Twm2YcMz3zd4HyBlOqxG7qjk2i-sMYkstLWE0j2uZBt8rSIxjdoas0_XcOCpYkQv9VXXwGLgIKsfhj2PY6xNbrc8lk4qhWLWxOnT0hxLKaA-ZbsV_YLYW4SaFZ7zCYRlECtLZOn8HB8VFMk4x5PXTw9BCrRwwnJnIfJjtZrXNoYfB63QY71zDC8MyEuINnUTljTijftwlSZE91f-if5Zgd2PYfz3gFiVs6yZosV3PHt995NszLJBhGd06zSFs3eDcq5jECNgxqi_1ZtmX_XLUX33jT6GEi1CWfBgcIu6MCXSGK18kEy6j4w7HFOkGZYHs6UWf78pIRPnnewNcbwCf6-M5Xjicx9dfKNML9YTAsN4-6w2DqYjrcXe_n91zAA0C_y06pDYcVIwLyXijKhl8H9Ix4IpCh3v42Ci4N2gYCsOhpafi3_VFo6Gkdc5NWPIkM7y18eTjgnnGq5ss2-T8_03wLBMvGzWcAJp0xI_zAXbiSF40BJgKp8vanVSczBJFdSodzn6vXDCv16D36Kj8PFpCtVPCPuVT1HPzxbl8TOk9_0G00?></g></svg>